{
    "asset" : {
        "copyright" : "Copyright 2020 Omabuarts Studio. For more info, visit https://omabuarts.com/license",
        "generator" : "Khronos glTF Blender I/O v1.1.46",
        "version" : "2.0"
    },
    "scene" : 0,
    "scenes" : [
        {
            "name" : "Scene",
            "nodes" : [
                14
            ]
        }
    ],
    "nodes" : [
        {
            "name" : "ear.L",
            "rotation" : [
                0.25165092945098877,
                -0.010508213192224503,
                -0.1440323293209076,
                0.9569827914237976
            ],
            "scale" : [
                1,
                1,
                0.9999998211860657
            ],
            "translation" : [
                0.19885586202144623,
                1.9857474565505981,
                1.0194132328033447
            ]
        },
        {
            "name" : "ear.R",
            "rotation" : [
                0.25165092945098877,
                0.010508213192224503,
                0.1440323293209076,
                0.9569827914237976
            ],
            "scale" : [
                1,
                1,
                0.9999998211860657
            ],
            "translation" : [
                -0.19664190709590912,
                1.9857474565505981,
                1.0194132328033447
            ]
        },
        {
            "name" : "tail.02",
            "rotation" : [
                -6.489801052111943e-08,
                0.9754919409751892,
                0.22003528475761414,
                4.2251068066434527e-07
            ],
            "scale" : [
                0.9999998807907104,
                0.9999996423721313,
                0.9999997615814209
            ],
            "translation" : [
                1.33757421805214e-10,
                0.4713699221611023,
                1.8725630468452437e-07
            ]
        },
        {
            "children" : [
                2
            ],
            "name" : "tail.01",
            "rotation" : [
                -3.2563374929850397e-07,
                -0.48885372281074524,
                0.8723657727241516,
                1.534592399821122e-07
            ],
            "scale" : [
                1,
                0.9999999403953552,
                0.9999987483024597
            ],
            "translation" : [
                5.8039427430767176e-11,
                0.9257429838180542,
                -0.8337759375572205
            ]
        },
        {
            "children" : [
                0,
                1,
                3
            ],
            "name" : "body",
            "rotation" : [
                0.7071068286895752,
                -5.552137518362898e-17,
                -5.552137518362898e-17,
                0.7071068286895752
            ],
            "translation" : [
                -0.0011069788597524166,
                0.002858400344848633,
                0.5580319762229919
            ]
        },
        {
            "name" : "leg.F.L",
            "rotation" : [
                0.0019474038854241371,
                0.7071040868759155,
                -0.7071041464805603,
                -0.0019474038854241371
            ],
            "scale" : [
                0.9999999403953552,
                0.9999999403953552,
                1
            ],
            "translation" : [
                0.2570376694202423,
                -0.5341552495956421,
                1.002018690109253
            ]
        },
        {
            "name" : "leg.B.L",
            "rotation" : [
                -0.0004463041841518134,
                0.7071066498756409,
                -0.7071066498756409,
                0.00044630421325564384
            ],
            "translation" : [
                0.2570376694202423,
                0.6351295709609985,
                1.002018928527832
            ]
        },
        {
            "name" : "leg.F.R",
            "rotation" : [
                -0.0019474038854241371,
                0.7071040868759155,
                -0.7071041464805603,
                0.0019474038854241371
            ],
            "scale" : [
                0.9999999403953552,
                0.9999999403953552,
                1
            ],
            "translation" : [
                -0.2570376694202423,
                -0.5341552495956421,
                1.002018690109253
            ]
        },
        {
            "name" : "leg.B.R",
            "rotation" : [
                0.0004463041841518134,
                0.7071066498756409,
                -0.7071066498756409,
                -0.00044630421325564384
            ],
            "translation" : [
                -0.2570376694202423,
                0.6351295709609985,
                1.002018928527832
            ]
        },
        {
            "children" : [
                4,
                5,
                6,
                7,
                8
            ],
            "name" : "root",
            "rotation" : [
                -0.7071068286895752,
                5.552136194873918e-17,
                5.552136856618408e-17,
                0.7071068286895752
            ],
            "scale" : [
                1,
                0.9999999403953552,
                1
            ]
        },
        {
            "mesh" : 0,
            "name" : "Zebra_LOD0",
            "skin" : 0
        },
        {
            "mesh" : 1,
            "name" : "Zebra_LOD1",
            "skin" : 0
        },
        {
            "mesh" : 2,
            "name" : "Zebra_LOD2",
            "skin" : 0
        },
        {
            "mesh" : 3,
            "name" : "Zebra_LOD3",
            "skin" : 0
        },
        {
            "children" : [
                10,
                11,
                12,
                13,
                9
            ],
            "name" : "Rig"
        }
    ],
    "materials" : [
        {
            "doubleSided" : true,
            "emissiveFactor" : [
                0,
                0,
                0
            ],
            "name" : "Mat_Zebra",
            "pbrMetallicRoughness" : {
                "baseColorTexture" : {
                    "index" : 0,
                    "texCoord" : 0
                },
                "metallicFactor" : 0,
                "roughnessFactor" : 0.5
            }
        }
    ],
    "meshes" : [
        {
            "name" : "Zebra.002",
            "primitives" : [
                {
                    "attributes" : {
                        "POSITION" : 0,
                        "NORMAL" : 1,
                        "TEXCOORD_0" : 2,
                        "COLOR_0" : 3,
                        "JOINTS_0" : 4,
                        "WEIGHTS_0" : 5
                    },
                    "indices" : 6,
                    "material" : 0
                }
            ]
        },
        {
            "name" : "Zebra.004",
            "primitives" : [
                {
                    "attributes" : {
                        "POSITION" : 8,
                        "NORMAL" : 9,
                        "TEXCOORD_0" : 10,
                        "COLOR_0" : 11,
                        "JOINTS_0" : 12,
                        "WEIGHTS_0" : 13
                    },
                    "indices" : 14,
                    "material" : 0
                }
            ]
        },
        {
            "name" : "Zebra.006",
            "primitives" : [
                {
                    "attributes" : {
                        "POSITION" : 15,
                        "NORMAL" : 16,
                        "TEXCOORD_0" : 17,
                        "COLOR_0" : 18,
                        "JOINTS_0" : 19,
                        "WEIGHTS_0" : 20
                    },
                    "indices" : 21,
                    "material" : 0
                }
            ]
        },
        {
            "name" : "Zebra.009",
            "primitives" : [
                {
                    "attributes" : {
                        "POSITION" : 22,
                        "NORMAL" : 23,
                        "TEXCOORD_0" : 24,
                        "COLOR_0" : 25,
                        "JOINTS_0" : 26,
                        "WEIGHTS_0" : 27
                    },
                    "indices" : 28,
                    "material" : 0
                }
            ]
        }
    ],
    "textures" : [
        {
            "source" : 0
        }
    ],
    "images" : [
        {
            "bufferView" : 7,
            "mimeType" : "image/png",
            "name" : "Tex_Zebra.PNG"
        }
    ],
    "skins" : [
        {
            "inverseBindMatrices" : 7,
            "joints" : [
                9,
                4,
                0,
                1,
                3,
                2,
                5,
                6,
                7,
                8
            ],
            "name" : "Rig"
        }
    ],
    "accessors" : [
        {
            "bufferView" : 0,
            "componentType" : 5126,
            "count" : 10371,
            "max" : [
                0.5464471578598022,
                3.094348192214966,
                1.886114239692688
            ],
            "min" : [
                -0.5464471578598022,
                0.022551074624061584,
                -1.5259310007095337
            ],
            "type" : "VEC3"
        },
        {
            "bufferView" : 1,
            "componentType" : 5126,
            "count" : 10371,
            "type" : "VEC3"
        },
        {
            "bufferView" : 2,
            "componentType" : 5126,
            "count" : 10371,
            "type" : "VEC2"
        },
        {
            "bufferView" : 3,
            "componentType" : 5126,
            "count" : 10371,
            "type" : "VEC4"
        },
        {
            "bufferView" : 4,
            "componentType" : 5123,
            "count" : 10371,
            "type" : "VEC4"
        },
        {
            "bufferView" : 5,
            "componentType" : 5126,
            "count" : 10371,
            "type" : "VEC4"
        },
        {
            "bufferView" : 6,
            "componentType" : 5123,
            "count" : 22524,
            "type" : "SCALAR"
        },
        {
            "bufferView" : 8,
            "componentType" : 5126,
            "count" : 10,
            "type" : "MAT4"
        },
        {
            "bufferView" : 9,
            "componentType" : 5126,
            "count" : 2031,
            "max" : [
                0.5446373224258423,
                3.1035354137420654,
                1.886114239692688
            ],
            "min" : [
                -0.5446373224258423,
                0.0019265016308054328,
                -1.5418510437011719
            ],
            "type" : "VEC3"
        },
        {
            "bufferView" : 10,
            "componentType" : 5126,
            "count" : 2031,
            "type" : "VEC3"
        },
        {
            "bufferView" : 11,
            "componentType" : 5126,
            "count" : 2031,
            "type" : "VEC2"
        },
        {
            "bufferView" : 12,
            "componentType" : 5126,
            "count" : 2031,
            "type" : "VEC4"
        },
        {
            "bufferView" : 13,
            "componentType" : 5123,
            "count" : 2031,
            "type" : "VEC4"
        },
        {
            "bufferView" : 14,
            "componentType" : 5126,
            "count" : 2031,
            "type" : "VEC4"
        },
        {
            "bufferView" : 15,
            "componentType" : 5123,
            "count" : 4674,
            "type" : "SCALAR"
        },
        {
            "bufferView" : 16,
            "componentType" : 5126,
            "count" : 1333,
            "max" : [
                0.5412174463272095,
                3.0891120433807373,
                1.8846081495285034
            ],
            "min" : [
                -0.5412174463272095,
                0.004398377146571875,
                -1.5418510437011719
            ],
            "type" : "VEC3"
        },
        {
            "bufferView" : 17,
            "componentType" : 5126,
            "count" : 1333,
            "type" : "VEC3"
        },
        {
            "bufferView" : 18,
            "componentType" : 5126,
            "count" : 1333,
            "type" : "VEC2"
        },
        {
            "bufferView" : 19,
            "componentType" : 5126,
            "count" : 1333,
            "type" : "VEC4"
        },
        {
            "bufferView" : 20,
            "componentType" : 5123,
            "count" : 1333,
            "type" : "VEC4"
        },
        {
            "bufferView" : 21,
            "componentType" : 5126,
            "count" : 1333,
            "type" : "VEC4"
        },
        {
            "bufferView" : 22,
            "componentType" : 5123,
            "count" : 2874,
            "type" : "SCALAR"
        },
        {
            "bufferView" : 23,
            "componentType" : 5126,
            "count" : 1215,
            "max" : [
                0.5366992950439453,
                3.0891120433807373,
                1.8846081495285034
            ],
            "min" : [
                -0.5366992950439453,
                0.0017034208867698908,
                -1.5418510437011719
            ],
            "type" : "VEC3"
        },
        {
            "bufferView" : 24,
            "componentType" : 5126,
            "count" : 1215,
            "type" : "VEC3"
        },
        {
            "bufferView" : 25,
            "componentType" : 5126,
            "count" : 1215,
            "type" : "VEC2"
        },
        {
            "bufferView" : 26,
            "componentType" : 5126,
            "count" : 1215,
            "type" : "VEC4"
        },
        {
            "bufferView" : 27,
            "componentType" : 5123,
            "count" : 1215,
            "type" : "VEC4"
        },
        {
            "bufferView" : 28,
            "componentType" : 5126,
            "count" : 1215,
            "type" : "VEC4"
        },
        {
            "bufferView" : 29,
            "componentType" : 5123,
            "count" : 1998,
            "type" : "SCALAR"
        }
    ],
    "bufferViews" : [
        {
            "buffer" : 0,
            "byteLength" : 124452,
            "byteOffset" : 0
        },
        {
            "buffer" : 0,
            "byteLength" : 124452,
            "byteOffset" : 124452
        },
        {
            "buffer" : 0,
            "byteLength" : 82968,
            "byteOffset" : 248904
        },
        {
            "buffer" : 0,
            "byteLength" : 165936,
            "byteOffset" : 331872
        },
        {
            "buffer" : 0,
            "byteLength" : 82968,
            "byteOffset" : 497808
        },
        {
            "buffer" : 0,
            "byteLength" : 165936,
            "byteOffset" : 580776
        },
        {
            "buffer" : 0,
            "byteLength" : 45048,
            "byteOffset" : 746712
        },
        {
            "buffer" : 0,
            "byteLength" : 2813,
            "byteOffset" : 791760
        },
        {
            "buffer" : 0,
            "byteLength" : 640,
            "byteOffset" : 794576
        },
        {
            "buffer" : 0,
            "byteLength" : 24372,
            "byteOffset" : 795216
        },
        {
            "buffer" : 0,
            "byteLength" : 24372,
            "byteOffset" : 819588
        },
        {
            "buffer" : 0,
            "byteLength" : 16248,
            "byteOffset" : 843960
        },
        {
            "buffer" : 0,
            "byteLength" : 32496,
            "byteOffset" : 860208
        },
        {
            "buffer" : 0,
            "byteLength" : 16248,
            "byteOffset" : 892704
        },
        {
            "buffer" : 0,
            "byteLength" : 32496,
            "byteOffset" : 908952
        },
        {
            "buffer" : 0,
            "byteLength" : 9348,
            "byteOffset" : 941448
        },
        {
            "buffer" : 0,
            "byteLength" : 15996,
            "byteOffset" : 950796
        },
        {
            "buffer" : 0,
            "byteLength" : 15996,
            "byteOffset" : 966792
        },
        {
            "buffer" : 0,
            "byteLength" : 10664,
            "byteOffset" : 982788
        },
        {
            "buffer" : 0,
            "byteLength" : 21328,
            "byteOffset" : 993452
        },
        {
            "buffer" : 0,
            "byteLength" : 10664,
            "byteOffset" : 1014780
        },
        {
            "buffer" : 0,
            "byteLength" : 21328,
            "byteOffset" : 1025444
        },
        {
            "buffer" : 0,
            "byteLength" : 5748,
            "byteOffset" : 1046772
        },
        {
            "buffer" : 0,
            "byteLength" : 14580,
            "byteOffset" : 1052520
        },
        {
            "buffer" : 0,
            "byteLength" : 14580,
            "byteOffset" : 1067100
        },
        {
            "buffer" : 0,
            "byteLength" : 9720,
            "byteOffset" : 1081680
        },
        {
            "buffer" : 0,
            "byteLength" : 19440,
            "byteOffset" : 1091400
        },
        {
            "buffer" : 0,
            "byteLength" : 9720,
            "byteOffset" : 1110840
        },
        {
            "buffer" : 0,
            "byteLength" : 19440,
            "byteOffset" : 1120560
        },
        {
            "buffer" : 0,
            "byteLength" : 3996,
            "byteOffset" : 1140000
        }
    ],
    "buffers" : [
        {
            "byteLength" : 1143996,
            "uri" : "data:application/octet-stream;base64,"
        }
    ]
}
